<svg xmlns="http://www.w3.org/2000/svg" width="1361.413" height="1202.741" viewBox="0 0 1361.413 1202.741">
  <g id="Taieri" transform="translate(5.474 5.474)" opacity="0.03">
    <path id="Shape" d="M97.064,0A48.534,48.534,0,1,1,0,0" transform="translate(1253.387 843.188)" fill="none" stroke="#333456" stroke-linecap="round" stroke-linejoin="round" stroke-miterlimit="10" stroke-width="10.947"/>
    <path id="Shape-2" data-name="Shape" d="M60.77,122.385C27.2,122.385,0,94.988,0,61.192S27.2,0,60.77,0" transform="translate(1289.681 8.44)" fill="none" stroke="#333456" stroke-linecap="round" stroke-linejoin="round" stroke-miterlimit="10" stroke-width="10.947"/>
    <path id="Shape-3" data-name="Shape" d="M0,57.315a50.642,50.642,0,1,0,101.284,0V0" transform="translate(474.346 0.844)" fill="none" stroke="#333456" stroke-linecap="round" stroke-linejoin="round" stroke-miterlimit="10" stroke-width="10.947"/>
    <path id="Shape-4" data-name="Shape" d="M114.143,227.045C51.1,227.045,0,176.223,0,113.522S51.1,0,114.143,0H218.6" transform="translate(1.688 964.728)" fill="none" stroke="#333456" stroke-linecap="round" stroke-linejoin="round" stroke-miterlimit="10" stroke-width="10.947"/>
    <path id="Shape-5" data-name="Shape" d="M37.965,73.431C17,73.431,0,56.994,0,36.715S17,0,37.965,0h40.53" transform="translate(70.899 1040.691)" fill="none" stroke="#333456" stroke-linecap="round" stroke-linejoin="round" stroke-miterlimit="10" stroke-width="10.947"/>
    <path id="Shape-6" data-name="Shape" d="M224.512,0H58.767C26.311,0,0,25.7,0,57.394" transform="translate(0 0.844)" fill="none" stroke="#333456" stroke-linecap="round" stroke-linejoin="round" stroke-miterlimit="10" stroke-width="10.947"/>
    <path id="Shape-7" data-name="Shape" d="M-287.153,0H-74.675A75.229,75.229,0,0,1,.662,75.119" transform="translate(1230.781 2.532)" fill="none" stroke="#333456" stroke-linecap="round" stroke-linejoin="round" stroke-miterlimit="10" stroke-width="10.947"/>
    <path id="Shape-8" data-name="Shape" d="M101.284,192.44V50.373A50.642,50.642,0,0,0,0,50.373v21.99" transform="translate(1249.167 197.503)" fill="none" stroke="#333456" stroke-linecap="round" stroke-linejoin="round" stroke-miterlimit="10" stroke-width="10.947"/>
    <circle id="Shape-9" data-name="Shape" cx="33.761" cy="33.761" r="33.761" transform="translate(462.529 297.943)" stroke-width="10.947" stroke="#333456" stroke-linecap="round" stroke-linejoin="round" stroke-miterlimit="10" fill="none"/>
    <ellipse id="Shape-10" data-name="Shape" cx="48.954" cy="48.532" rx="48.954" ry="48.532" transform="translate(540.18 960.508)" fill="none" stroke="#333456" stroke-linecap="round" stroke-linejoin="round" stroke-miterlimit="10" stroke-width="10.947"/>
    <circle id="Shape-11" data-name="Shape" cx="53.174" cy="53.174" r="53.174" transform="translate(102.128 163.742)" stroke-width="10.947" stroke="#333456" stroke-linecap="round" stroke-linejoin="round" stroke-miterlimit="10" fill="none"/>
    <path id="Shape-12" data-name="Shape" d="M118.587,233.8c65.5,0,118.587-52.337,118.587-116.9S184.083,0,118.587,0,0,52.337,0,116.9" transform="translate(37.137 98.752)" fill="none" stroke="#333456" stroke-linecap="round" stroke-linejoin="round" stroke-miterlimit="10" stroke-width="10.947"/>
    <path id="Shape-13" data-name="Shape" d="M4.4,89.853c-18.017,67.366,20.959,136.358,87.05,154.1s134.285-22.493,152.3-89.858S222.789,17.744,156.7,0" transform="translate(1102.306 943.628)" fill="none" stroke="#333456" stroke-linecap="round" stroke-linejoin="round" stroke-miterlimit="10" stroke-width="10.947"/>
    <path id="Shape-14" data-name="Shape" d="M48.532,0A48.532,48.532,0,1,0,97.064,48.532V0" transform="translate(228.733 349.429)" fill="none" stroke="#333456" stroke-linecap="round" stroke-linejoin="round" stroke-miterlimit="10" stroke-width="10.947"/>
    <path id="Shape-15" data-name="Shape" d="M0,64.568c0,35.66,28.719,64.568,64.146,64.568s64.146-28.908,64.146-64.568S99.574,0,64.146,0H0" transform="translate(292.035 0.844)" fill="none" stroke="#333456" stroke-linecap="round" stroke-linejoin="round" stroke-miterlimit="10" stroke-width="10.947"/>
    <path id="Shape-16" data-name="Shape" d="M56.128,111.059C25.129,111.059,0,86.2,0,55.53S25.129,0,56.128,0s56.128,24.861,56.128,55.53V225.357" transform="translate(4.22 620.363)" fill="none" stroke="#333456" stroke-linecap="round" stroke-linejoin="round" stroke-miterlimit="10" stroke-width="10.947"/>
    <path id="Shape-17" data-name="Shape" d="M119,51.486c0,28.435,22.681,51.486,50.652,51.486s50.642-23.051,50.642-51.486S197.622,0,169.65,0H0" transform="translate(1114.966 682.822)" fill="none" stroke="#333456" stroke-linecap="round" stroke-linejoin="round" stroke-miterlimit="10" stroke-width="10.947"/>
    <path id="Shape-18" data-name="Shape" d="M54.018,117.988C24.185,117.988,0,141.835,0,171.246s24.185,53.266,54.018,53.266,54.018-23.846,54.018-53.258V0" transform="translate(761.317)" fill="none" stroke="#333456" stroke-linecap="round" stroke-linejoin="round" stroke-miterlimit="10" stroke-width="10.947"/>
    <path id="Shape-19" data-name="Shape" d="M28.629,48.954A48.568,48.568,0,1,1,77.194,97.908H0" transform="translate(743.592 1093.865)" fill="none" stroke="#333456" stroke-linecap="round" stroke-linejoin="round" stroke-miterlimit="10" stroke-width="10.947"/>
    <path id="Shape-20" data-name="Shape" d="M48.532,132.157A48.289,48.289,0,1,1,0,180.445V0" transform="translate(871.041 342.677)" fill="none" stroke="#333456" stroke-linecap="round" stroke-linejoin="round" stroke-miterlimit="10" stroke-width="10.947"/>
    <path id="Shape-21" data-name="Shape" d="M48.532,147.459C21.729,147.459,0,168.865,0,195.27s21.729,47.811,48.532,47.811,48.532-21.405,48.532-47.811V0" transform="translate(4.22 332.549)" fill="none" stroke="#333456" stroke-linecap="round" stroke-linejoin="round" stroke-miterlimit="10" stroke-width="10.947"/>
    <path id="Shape-22" data-name="Shape" d="M171.085,86.935C171.085,38.923,132.786,0,85.541,0S0,38.923,0,86.935s38.3,86.935,85.544,86.935H309.76" transform="translate(410.2 245.613)" fill="none" stroke="#333456" stroke-linecap="round" stroke-linejoin="round" stroke-miterlimit="10" stroke-width="10.947"/>
    <path id="Shape-23" data-name="Shape" d="M224.211,173.871c47.254,0,85.549-38.923,85.549-86.935S271.465,0,224.211,0H0" transform="translate(1040.691 439.741)" fill="none" stroke="#333456" stroke-linecap="round" stroke-linejoin="round" stroke-miterlimit="10" stroke-width="10.947"/>
    <path id="Shape-24" data-name="Shape" d="M0,81.449C0,36.462,36.073,0,80.573,0h82.78c44.5,0,80.572,36.462,80.572,81.449h0c0,44.987-36.07,81.449-80.573,81.449H80.573C36.073,162.9,0,126.436,0,81.449Z" transform="translate(934.343 66.679)" fill="none" stroke="#333456" stroke-linecap="round" stroke-linejoin="round" stroke-miterlimit="10" stroke-width="10.947"/>
    <path id="Shape-25" data-name="Shape" d="M50.22,243.081A50.178,50.178,0,0,1,0,192.946V50.136A50.178,50.178,0,0,1,50.22,0h0a50.178,50.178,0,0,1,50.22,50.136v142.81a50.178,50.178,0,0,1-50.22,50.135Z" transform="translate(174.715 492.071)" fill="none" stroke="#333456" stroke-linecap="round" stroke-linejoin="round" stroke-miterlimit="10" stroke-width="10.947"/>
    <path id="Shape-26" data-name="Shape" d="M0,114.366v-75.4A39.107,39.107,0,0,1,39.247,0h0A39.107,39.107,0,0,1,78.495,38.966v150.8a39.107,39.107,0,0,1-39.247,38.966h0A39.107,39.107,0,0,1,0,189.767V171.549" transform="translate(698.858 557.061)" fill="none" stroke="#333456" stroke-linecap="round" stroke-linejoin="round" stroke-miterlimit="10" stroke-width="10.947"/>
    <path id="Shape-27" data-name="Shape" d="M135.889,267.5v6.573a67.853,67.853,0,0,1-67.945,67.761h0A67.853,67.853,0,0,1,0,274.073V67.76A67.853,67.853,0,0,1,67.945,0h0a67.853,67.853,0,0,1,67.945,67.76v2.026" transform="translate(635.556 0.844)" fill="none" stroke="#333456" stroke-linecap="round" stroke-linejoin="round" stroke-miterlimit="10" stroke-width="10.947"/>
    <path id="Shape-28" data-name="Shape" d="M56.339,0H52.278A52.3,52.3,0,0,0,0,52.33H0a52.3,52.3,0,0,0,52.278,52.33h120.8a52.3,52.3,0,0,0,52.279-52.33h0A52.3,52.3,0,0,0,173.078,0h-4.061" transform="translate(4.22 803.518)" fill="none" stroke="#333456" stroke-linecap="round" stroke-linejoin="round" stroke-miterlimit="10" stroke-width="10.947"/>
    <path id="Shape-29" data-name="Shape" d="M0,0V195.509c0,58.437,47.8,105.81,106.77,105.81s106.77-47.373,106.77-105.81V149.317" transform="translate(633.868 557.061)" fill="none" stroke="#333456" stroke-linecap="round" stroke-linejoin="round" stroke-miterlimit="10" stroke-width="10.947"/>
    <path id="Shape-30" data-name="Shape" d="M0,0H175.39c66.753,0,120.865,54.416,120.865,121.541S242.143,243.081,175.39,243.081H122.628" transform="translate(419.484 887.922)" fill="none" stroke="#333456" stroke-linecap="round" stroke-linejoin="round" stroke-miterlimit="10" stroke-width="10.947"/>
    <path id="Shape-31" data-name="Shape" d="M92,101.284H50.484A50.642,50.642,0,0,1,50.484,0h83.03A50.563,50.563,0,0,1,184,50.642v4.5a46.072,46.072,0,0,1-46,46.143" transform="translate(402.603 490.383)" fill="none" stroke="#333456" stroke-linecap="round" stroke-linejoin="round" stroke-miterlimit="10" stroke-width="10.947"/>
    <path id="Shape-32" data-name="Shape" d="M105.082,108.88H152.5c31.844,0,57.663-24.374,57.663-54.44S184.345,0,152.5,0H57.663C25.816,0,0,24.374,0,54.44" transform="translate(814.491 289.503)" fill="none" stroke="#333456" stroke-linecap="round" stroke-linejoin="round" stroke-miterlimit="10" stroke-width="10.947"/>
    <path id="Shape-33" data-name="Shape" d="M243.925,0H130.25C58.315,0,0,58.576,0,130.825" transform="translate(325.796 171.338)" fill="none" stroke="#333456" stroke-linecap="round" stroke-linejoin="round" stroke-miterlimit="10" stroke-width="10.947"/>
    <path id="Shape-34" data-name="Shape" d="M48.532,265.735A48.179,48.179,0,1,1,0,313.912V0" transform="translate(1174.892 752.876)" fill="none" stroke="#333456" stroke-linecap="round" stroke-linejoin="round" stroke-miterlimit="10" stroke-width="10.947"/>
    <path id="Shape-35" data-name="Shape" d="M0,89.467C0,40.057,39.54,0,88.315,0h155.61" transform="translate(860.069 960.508)" fill="none" stroke="#333456" stroke-linecap="round" stroke-linejoin="round" stroke-miterlimit="10" stroke-width="10.947"/>
    <path id="Shape-36" data-name="Shape" d="M0,101.284H83.03C138.793,101.284,184,55.937,184,0" transform="translate(630.492 389.099)" fill="none" stroke="#333456" stroke-linecap="round" stroke-linejoin="round" stroke-miterlimit="10" stroke-width="10.947"/>
    <path id="Shape-37" data-name="Shape" d="M147.706,0V45.371a82.935,82.935,0,0,1-82.941,82.922H0" transform="translate(967.261 754.565)" fill="none" stroke="#333456" stroke-linecap="round" stroke-linejoin="round" stroke-miterlimit="10" stroke-width="10.947"/>
    <path id="Shape-38" data-name="Shape" d="M163.742,0h-70.9C41.562,0,0,41.948,0,93.688" transform="translate(1108.214 528.364)" fill="none" stroke="#333456" stroke-linecap="round" stroke-linejoin="round" stroke-miterlimit="10" stroke-width="10.947"/>
    <path id="Shape-39" data-name="Shape" d="M0,167.962V91.056C0,46.775,34.584,9.681,81.027,0" transform="translate(183.999 1023.811)" fill="none" stroke="#333456" stroke-linecap="round" stroke-linejoin="round" stroke-miterlimit="10" stroke-width="10.947"/>
    <path id="Shape-40" data-name="Shape" d="M.421,0V155.3" transform="translate(37.138 275.154)" fill="none" stroke="#333456" stroke-linecap="round" stroke-linejoin="round" stroke-miterlimit="10" stroke-width="10.947"/>
    <path id="Shape-41" data-name="Shape" d="M0,.421H319.888" transform="translate(367.998 1190.93)" fill="none" stroke="#333456" stroke-linecap="round" stroke-linejoin="round" stroke-miterlimit="10" stroke-width="10.947"/>
    <path id="Shape-42" data-name="Shape" d="M.421,0V128.293" transform="translate(918.308 632.18)" fill="none" stroke="#333456" stroke-linecap="round" stroke-linejoin="round" stroke-miterlimit="10" stroke-width="10.947"/>
    <path id="Shape-43" data-name="Shape" d="M.421,0V52.33" transform="translate(788.327 980.765)" fill="none" stroke="#333456" stroke-linecap="round" stroke-linejoin="round" stroke-miterlimit="10" stroke-width="10.947"/>
    <path id="Shape-44" data-name="Shape" d="M174.715,40.447V57.563a43.784,43.784,0,0,1-43.842,43.721h0A43.786,43.786,0,0,1,87.02,57.563V43.383A43.449,43.449,0,0,0,43.516,0h0A43.451,43.451,0,0,0,0,43.383V60.837" transform="translate(1075.297 288.659)" fill="none" stroke="#333456" stroke-linecap="round" stroke-linejoin="round" stroke-miterlimit="10" stroke-width="10.947"/>
    <path id="Shape-45" data-name="Shape" d="M0,61.586A61.6,61.6,0,0,1,61.614,0h0a61.606,61.606,0,0,1,61.614,61.6v44.78a61.6,61.6,0,0,1-61.614,61.586h0A61.605,61.605,0,0,1,0,106.364Z" transform="translate(919.151 1023.811)" fill="none" stroke="#333456" stroke-linecap="round" stroke-linejoin="round" stroke-miterlimit="10" stroke-width="10.947"/>
    <g id="Group_30" data-name="Group 30" transform="translate(261.591 496.291)">
      <path id="Shape-46" data-name="Shape" d="M0,0V54.259A119.6,119.6,0,0,0,119.531,173.926h47.608a72.015,72.015,0,0,1,71.923,72h0" transform="translate(76.665)" fill="none" stroke="#333456" stroke-linecap="round" stroke-linejoin="round" stroke-miterlimit="10" stroke-width="10.947"/>
      <path id="Shape-47" data-name="Shape" d="M220.572,0H69.12a68.756,68.756,0,1,0,0,137.51h62.508" transform="translate(95.155 318.652)" fill="none" stroke="#333456" stroke-linecap="round" stroke-linejoin="round" stroke-miterlimit="10" stroke-width="10.947"/>
      <path id="Shape-48" data-name="Shape" d="M57.259,167.921H48.228a48.287,48.287,0,1,1,0-96.574H155.912A71.3,71.3,0,0,0,227.176,0" transform="translate(0.059 527.561)" fill="none" stroke="#333456" stroke-linecap="round" stroke-linejoin="round" stroke-miterlimit="10" stroke-width="10.947"/>
    </g>
  </g>
</svg>
