<svg xmlns="http://www.w3.org/2000/svg" width="16.295" height="16.295" viewBox="0 0 16.295 16.295">
    <path d="m7.963.973 1.195 2.39a1.475 1.475 0 0 0 .964.713l2.166.36c1.385.23 1.712 1.235.712 2.226l-1.683 1.684a1.474 1.474 0 0 0-.353 1.229l.482 2.084c.38 1.65-.5 2.288-1.955 1.426l-2.03-1.2a1.468 1.468 0 0 0-1.344 0l-2.03 1.2c-1.453.862-2.336.217-1.955-1.426l.482-2.084a1.474 1.474 0 0 0-.354-1.229L.576 6.662c-.991-.991-.672-2 .713-2.227l2.166-.36a1.479 1.479 0 0 0 .957-.713L5.607.973c.652-1.297 1.711-1.297 2.356 0z" transform="translate(1.359 1.411)" style="fill:#fecd48"/>
</svg>
